#!OML:ASF H:\Dans Jumps\Project 1\Capture day 1\Session 1\subject.ASF
:FULLY-SPECIFIED
:DEGREES
566
root 0.361967 17.7647 -3.01253 7.75094 -0.0945331 -1.28255
lowerback 0.724076 -0.458613 -0.21383
upperback 3.31937 -0.651812 1.69715
thorax 3.02461 -0.357168 1.85169
lowerneck -12.9412 0.157297 -2.17379
upperneck 35.3205 0.513086 0.91342
head 14.2397 0.0504445 0.835928
rclavicle -5.66536e-015 9.54166e-015
rhumerus -25.9189 -14.3768 -80.0017
rradius 23.1252
rwrist 33.6284
rhand -18.8248 -26.6592
rfingers 7.12502
rthumb 7.4743 -56.5071
lclavicle -5.66536e-015 9.54166e-015
lhumerus -24.3136 -5.65008 91.6178
lradius 18.128
lwrist 10.1345
lhand -25.7993 -4.09569
lfingers 7.12502
lthumb 0.739574 25.8828
rfemur -18.0228 -1.1089 19.3279
rtibia 22.8558
rfoot -11.5827 -0.923513
rtoes 14.65
lfemur -16.2565 6.88211 -17.5627
ltibia 19.5238
lfoot -8.57094 2.95694
ltoes 2.74507
567
root 0.363597 17.7645 -3.01406 7.73371 -0.0979252 -1.28706
lowerback 0.708164 -0.455711 -0.203426
upperback 3.31012 -0.648243 1.70491
thorax 3.02388 -0.355172 1.85382
lowerneck -12.9435 0.160415 -2.17114
upperneck 35.3315 0.514724 0.919866
head 14.2452 0.0523279 0.838468
rclavicle 4.07509e-015 -6.36111e-015
rhumerus -25.9202 -14.4211 -79.9891
rradius 23.1075
rwrist 33.6462
rhand -18.8132 -26.6602
rfingers 7.12502
rthumb 7.48544 -56.5077
lclavicle 4.07509e-015 -6.36111e-015
lhumerus -24.3228 -5.63695 91.6075
lradius 18.1575
lwrist 10.1752
lhand -25.7763 -4.04879
lfingers 7.12502
lthumb 0.761756 25.9296
rfemur -18.0065 -1.10595 19.3259
rtibia 22.8498
rfoot -11.5763 -0.924602
rtoes 14.6366
lfemur -16.2421 6.87617 -17.5606
ltibia 19.5234
lfoot -8.57287 2.95994
ltoes 2.75082
568
root 0.365233 17.7643 -3.01547 7.71375 -0.101857 -1.28889
lowerback 0.693604 -0.451139 -0.193803
upperback 3.30296 -0.642385 1.70976
thorax 3.02443 -0.352028 1.85343
lowerneck -12.9377 0.171912 -2.15529
upperneck 35.3318 0.527481 0.919001
head 14.2438 0.0598943 0.837291
rclavicle -1.37161e-014 1.94809e-014
rhumerus -25.922 -14.4688 -79.9794
rradius 23.093
rwrist 33.6599
rhand -18.8139 -26.6382
rfingers 7.12502
rthumb 7.48478 -56.4858
lclavicle -1.37161e-014 1.94809e-014
lhumerus -24.3225 -5.62991 91.5953
lradius 18.1813
lwrist 10.2213
lhand -25.7319 -3.95783
lfingers 7.12502
lthumb 0.804718 26.0204
rfemur -17.9885 -1.10533 19.321
rtibia 22.8472
rfoot -11.5734 -0.922741
rtoes 14.6251
lfemur -16.2238 6.87262 -17.5619
ltibia 19.5237
lfoot -8.57586 2.9638
ltoes 2.73483
569
root 0.366841 17.7639 -3.01685 7.69043 -0.105936 -1.28879
lowerback 0.682626 -0.444145 -0.184043
upperback 3.29958 -0.633235 1.711
thorax 3.02671 -0.347207 1.84934
lowerneck -12.9322 0.188183 -2.12522
upperneck 35.3211 0.546211 0.9101
head 14.2373 0.0709719 0.831158
rclavicle 1.2921e-015 -1.13307e-014
rhumerus -25.9227 -14.5304 -79.9711
rradius 23.0821
rwrist 33.6796
rhand -18.8241 -26.5894
rfingers 7.12502
rthumb 7.47498 -56.4373
lclavicle 1.2921e-015 -1.13307e-014
lhumerus -24.3124 -5.63406 91.5818
lradius 18.1925
lwrist 10.2604
lhand -25.5956 -3.75872
lfingers 7.12502
lthumb 0.936312 26.219
rfemur -17.968 -1.10317 19.314
rtibia 22.847
rfoot -11.5722 -0.922615
rtoes 14.6152
lfemur -16.2012 6.86894 -17.5647
ltibia 19.5239
lfoot -8.5796 2.96846
ltoes 2.71933
570
root 0.368277 17.7634 -3.01831 7.66589 -0.11531 -1.29034
lowerback 0.673842 -0.438042 -0.177079
upperback 3.29339 -0.625264 1.7152
thorax 3.02496 -0.343066 1.84986
lowerneck -12.9147 0.203115 -2.10655
upperneck 35.3068 0.564727 0.904277
head 14.2264 0.0808632 0.828158
rclavicle 1.78906e-015 -1.53064e-014
rhumerus -25.9403 -14.5472 -79.9713
rradius 23.0993
rwrist 33.6607
rhand -18.8294 -26.5505
rfingers 7.12502
rthumb 7.46981 -56.3986
lclavicle 1.78906e-015 -1.53064e-014
lhumerus -24.3067 -5.63424 91.5723
lradius 18.1877
lwrist 10.2766
lhand -25.4572 -3.56497
lfingers 7.12502
lthumb 1.07003 26.4121
rfemur -17.9477 -1.09492 19.3089
rtibia 22.8475
rfoot -11.5718 -0.922644
rtoes 14.6121
lfemur -16.1772 6.86985 -17.5651
ltibia 19.5246
lfoot -8.58318 2.97494
ltoes 2.70147
571
root 0.369653 17.763 -3.01972 7.64028 -0.123069 -1.29082
lowerback 0.664935 -0.432136 -0.171351
upperback 3.28891 -0.617547 1.71863
thorax 3.02507 -0.33909 1.85028
lowerneck -12.9086 0.209743 -2.10226
upperneck 35.3005 0.571045 0.910478
head 14.2219 0.085129 0.830829
rclavicle -7.25564e-015 -9.34288e-015
rhumerus -25.9574 -14.5598 -79.9749
rradius 23.1209
rwrist 33.638
rhand -18.8359 -26.5024
rfingers 7.12502
rthumb 7.46357 -56.3507
lclavicle -7.25564e-015 -9.34288e-015
lhumerus -24.2998 -5.63896 91.564
lradius 18.1723
lwrist 10.2766
lhand -25.3212 -3.39188
lfingers 7.12502
lthumb 1.20135 26.5845
rfemur -17.9251 -1.08626 19.3028
rtibia 22.8476
rfoot -11.5725 -0.924695
rtoes 14.6163
lfemur -16.1524 6.86949 -17.5659
ltibia 19.5268
lfoot -8.58918 2.98025
ltoes 2.691
572
root 0.370914 17.7625 -3.02121 7.61428 -0.128168 -1.29215
lowerback 0.657081 -0.426844 -0.164954
upperback 3.28412 -0.610634 1.72161
thorax 3.02427 -0.335484 1.84985
lowerneck -12.9042 0.21085 -2.10164
upperneck 35.2964 0.569398 0.919053
head 14.219 0.0857703 0.833905
rclavicle -5.76476e-015 1.21259e-014
rhumerus -25.9771 -14.5679 -79.982
rradius 23.1475
rwrist 33.6099
rhand -18.844 -26.4467
rfingers 7.12502
rthumb 7.45577 -56.2953
lclavicle -5.76476e-015 1.21259e-014
lhumerus -24.2951 -5.64349 91.5546
lradius 18.1548
lwrist 10.2695
lhand -25.1638 -3.20405
lfingers 7.12502
lthumb 1.35334 26.7714
rfemur -17.9012 -1.07772 19.2983
rtibia 22.8465
rfoot -11.5708 -0.928774
rtoes 14.6178
lfemur -16.1293 6.86987 -17.565
ltibia 19.5315
lfoot -8.5971 2.98191
ltoes 2.68638
